<svg width="160" height="80" viewBox="0 0 160 80" fill="none" xmlns="http://www.w3.org/2000/svg">
<path d="M89.1282 80C88.4762 80 87.759 79.9348 87.107 79.7392L26.0801 65.0041C21.5161 63.9609 18.1909 59.2013 18.1909 53.7245V24.5151C18.1909 18.9731 21.5813 14.1483 26.3409 13.1703L87.3026 0.195599C87.8894 0.0651997 88.4762 0 89.063 0C89.6497 0 90.2365 0.0651997 90.8233 0.195599L151.85 13.1703C156.545 14.1483 160 18.9731 160 24.5151V53.7245C160 59.1361 156.675 63.8957 152.111 65.0041L91.0841 79.674C90.4322 79.8696 89.7802 80 89.1282 80Z" fill="#202020"/>
<path d="M89.1281 70.8068C88.8021 70.8068 88.4761 70.7416 88.1501 70.6764L27.1232 56.0065C24.8412 55.4197 23.146 53.0725 23.146 50.3341V21.1247C23.146 18.3211 24.8412 15.9739 27.1884 15.4523L88.2153 2.47755C88.5413 2.41235 88.8021 2.41235 89.1281 2.41235C89.4541 2.41235 89.7149 2.41235 90.0409 2.47755L151.068 15.4523C153.415 15.9739 155.11 18.3211 155.11 21.1247V50.3341C155.11 53.0725 153.48 55.4197 151.133 56.0065L90.1061 70.6764C89.7801 70.7416 89.4541 70.8068 89.1281 70.8068Z" fill="white"/>
<path d="M43.2865 35.1426L44.5253 32.339H39.3745L35.8537 40.4238C35.7885 40.5542 35.7233 40.6194 35.5929 40.6194H32.7893C32.5937 40.6194 32.5285 40.489 32.5937 40.2934L38.9181 25.9495C39.5049 24.5803 40.0917 23.6023 41.0045 22.9503C40.6785 22.8851 40.0917 22.7547 39.3093 22.4939C38.3313 22.1679 37.8097 22.0375 37.0273 22.0375C34.8757 22.0375 33.6369 23.6023 33.6369 25.6235C33.6369 26.4711 33.8325 27.3186 34.2237 28.101C34.2237 28.1662 34.2889 28.2314 34.2889 28.2966C34.2889 28.427 34.2237 28.4922 34.0933 28.4922C32.3981 28.5574 31.4854 27.2534 31.4854 25.4279C31.4854 22.6895 33.7673 20.3423 36.7665 20.3423C37.8097 20.3423 38.5269 20.6031 39.8309 21.0595C41.0697 21.5159 41.9173 21.8419 42.9605 21.8419C43.2865 21.8419 43.6777 21.8419 44.1341 21.7767H44.1993C44.3297 21.7767 44.3949 21.8419 44.2645 22.0375C43.8081 22.6895 43.3517 23.6023 42.7649 24.9063L40.2873 30.5134H45.4381L49.1545 22.1679C49.2197 22.0375 49.2849 21.9723 49.4153 21.9723H52.2188C52.4144 21.9723 52.4796 22.1027 52.4144 22.2983L46.4161 35.7946C45.9597 36.7726 45.7641 37.555 45.7641 38.1418C45.7641 38.7286 45.9597 39.0546 46.4161 39.0546C47.5245 39.0546 49.7413 36.9682 51.0453 34.0994C51.1105 33.9038 51.2409 33.8386 51.4365 33.8386C51.8277 33.8386 52.2188 34.2298 52.0233 34.621C50.4585 38.207 47.2637 41.2062 44.5905 41.2062C43.1561 41.2062 42.3085 40.4238 42.3085 38.859C42.3085 37.881 42.6345 36.6422 43.2865 35.1426Z" fill="#202020"/>
<path d="M57.5002 28.5575C59.8474 28.5575 60.9558 30.0571 60.9558 32.3391C60.9558 33.5779 60.6298 34.8819 60.043 36.1207H60.1734C61.2818 36.1207 62.2597 35.4687 62.9117 34.1647C62.9769 33.9691 63.1073 33.9039 63.3029 33.9039C63.6941 33.9039 64.0201 34.2951 63.8897 34.6863C63.0421 36.7727 61.4122 37.6203 59.9126 37.6203C59.6518 37.6203 59.391 37.6203 59.1954 37.5551C57.8262 39.7067 55.7398 41.0759 53.4578 41.0759C51.1106 41.0759 49.937 39.5763 49.937 37.3595C49.937 33.6431 53.523 28.3619 57.5002 28.5575ZM57.6958 35.4687C57.6958 34.2951 58.413 33.0563 59.391 32.5999C59.391 32.4695 59.391 32.3391 59.391 32.1435C59.391 30.9699 58.9346 30.1875 57.9566 30.1875C55.805 29.9919 53.1318 34.6211 53.197 37.1639C53.197 38.3375 53.7186 39.0547 54.7618 39.0547C55.9354 39.0547 57.0438 38.0767 57.9566 36.6423C57.8262 36.2511 57.6958 35.8599 57.6958 35.4687Z" fill="#202020"/>
<path d="M75.9517 36.1857L77.3861 33.0562C77.6469 32.4694 77.7773 31.9478 77.7773 31.5566C77.7773 30.9698 77.5165 30.709 76.9297 30.709C75.4953 30.709 73.9957 32.4694 72.3657 35.9249L70.3445 40.4237C70.2793 40.5541 70.2141 40.6193 70.0837 40.6193H67.4105C67.2149 40.6193 67.1497 40.4889 67.2149 40.2933L70.4097 33.0562C70.6705 32.4694 70.8009 31.9478 70.8009 31.4914C70.8009 30.9698 70.5401 30.709 69.9533 30.709C68.5189 30.709 66.7585 32.665 65.3241 35.9249L63.4333 40.4237C63.3681 40.5541 63.3029 40.6193 63.1725 40.6193H60.4993C60.3037 40.6193 60.2385 40.4889 60.3037 40.2933L63.0421 34.0993L65.1937 29.2094C65.2589 29.079 65.3241 29.0138 65.4545 29.0138H67.7365C67.9321 29.0138 67.9973 29.1442 67.9321 29.3398L67.4757 30.9698C68.9101 29.405 70.5401 28.5574 72.0397 28.5574C73.5393 28.5574 74.3869 29.2746 74.3869 30.5786C74.3869 30.7742 74.3869 30.9046 74.3869 30.9698C75.8213 29.405 77.4513 28.5574 79.0161 28.5574C80.5156 28.5574 81.3632 29.3398 81.3632 30.6438C81.3632 31.361 81.1676 32.2086 80.7112 33.1214L79.4073 35.8597C79.0161 36.6421 78.8205 37.2941 78.8205 37.8157C78.8205 38.4025 79.0813 38.7937 79.5377 38.7937C80.5156 38.7937 81.8196 37.0985 83.1888 34.0993C83.254 33.9037 83.3844 33.8385 83.58 33.8385C83.9712 33.8385 84.3624 34.2297 84.1668 34.6209C82.4716 38.5329 80.1245 41.0757 77.7121 41.0757C76.2125 41.0757 75.2997 40.1629 75.2997 38.7285C75.2997 37.8809 75.4953 37.0985 75.9517 36.1857Z" fill="#202020"/>
<path d="M89.8389 28.5575C91.7297 28.5575 92.8381 29.5355 92.8381 30.9699C92.8381 33.3171 90.0345 36.1859 85.2749 36.7075C85.2749 36.7727 85.2749 36.9031 85.2749 37.0987C85.2749 38.4679 85.9921 39.3807 87.5569 39.3807C88.9261 39.3807 90.1649 38.8591 91.4037 37.8811C92.6425 36.9031 93.5553 35.5991 94.2073 34.1647C94.2725 33.9691 94.4029 33.9039 94.5984 33.9039C94.9896 33.9039 95.3808 34.2951 95.1852 34.6863C94.3377 36.6423 93.0989 38.2071 91.4689 39.4459C89.8389 40.6195 88.1437 41.2063 86.2529 41.2063C83.5145 41.2063 82.1453 39.6415 82.1453 37.2943C82.0149 33.6431 85.8617 28.3619 89.8389 28.5575ZM89.9041 29.9267C88.4045 29.9267 86.3181 32.7303 85.5357 35.4035C88.9913 34.9471 90.9473 32.5999 90.9473 31.1003C91.0125 30.3831 90.5561 29.9267 89.9041 29.9267Z" fill="#202020"/>
<path d="M94.3381 40.4237C94.2729 40.5541 94.1425 40.6193 94.0121 40.6193H91.6649C91.4693 40.6193 91.4041 40.4889 91.4693 40.2933L94.2077 34.0993L99.4888 22.1026C99.554 21.9722 99.6192 21.907 99.7496 21.907H102.423C102.618 21.907 102.684 22.0374 102.618 22.233L99.3584 29.6005C100.336 28.8833 101.314 28.4922 102.358 28.4922C104.379 28.4922 105.357 29.8613 105.357 31.9477C105.357 34.0993 104.314 36.7073 102.749 38.5981C104.966 37.6201 106.661 35.9901 107.508 34.0993C107.574 33.9037 107.704 33.8385 107.9 33.8385C108.291 33.8385 108.682 34.2297 108.486 34.6209C106.53 38.9241 102.162 41.2061 98.0544 41.2061C96.4896 41.2061 95.5117 40.6193 94.9901 39.4457L94.3381 40.4237ZM101.184 30.1221C99.88 30.1221 98.3804 31.8825 97.1416 34.6861L95.9681 37.4245C96.1637 38.5329 96.6852 39.1197 97.6632 39.1197C98.3804 39.1197 99.0324 38.7285 99.8148 37.8157C100.532 36.9681 101.184 35.9249 101.64 34.7513C102.162 33.5777 102.358 32.5345 102.358 31.6869C102.292 30.7741 101.901 30.1221 101.184 30.1221Z" fill="#202020"/>
<path d="M110.638 36.1857L113.05 30.7741C112.659 30.8393 112.202 30.8393 111.876 30.8393C111.29 30.8393 110.768 30.7741 110.246 30.6437L108.486 34.6209C108.421 34.7513 108.356 34.8165 108.16 34.8165C107.769 34.8165 107.378 34.4905 107.508 34.1645C108.682 31.6217 109.203 29.9265 109.203 28.0357C109.203 27.9053 109.268 27.7749 109.399 27.7097C109.594 27.6445 109.79 27.6445 109.986 27.6445C110.638 27.6445 111.029 28.0357 111.029 28.6877C111.029 28.8833 111.029 29.0789 110.964 29.2745C111.485 29.4049 112.007 29.4701 112.528 29.4701C113.506 29.4701 114.68 29.2745 115.984 29.0137H116.049C116.18 29.0137 116.245 29.0789 116.31 29.1441L116.636 29.7309C116.701 29.8613 116.701 29.9917 116.636 30.1221L114.093 35.8597C113.702 36.7073 113.506 37.4245 113.506 37.8809C113.506 38.4677 113.767 38.7937 114.224 38.7937C115.202 38.7937 116.44 37.0985 117.875 34.0993C117.94 33.9037 118.07 33.8385 118.266 33.8385C118.657 33.8385 119.048 34.2297 118.853 34.6209C117.027 38.5329 114.745 41.0757 112.333 41.0757C110.833 41.0757 109.986 40.2281 109.986 38.7285C109.986 38.0113 110.181 37.1637 110.638 36.1857Z" fill="#202020"/>
<path d="M124.525 28.5575C126.416 28.5575 127.525 29.5355 127.525 30.9699C127.525 33.3171 124.721 36.1859 119.961 36.7075C119.961 36.7727 119.961 36.9031 119.961 37.0987C119.961 38.4679 120.679 39.3807 122.243 39.3807C123.613 39.3807 124.851 38.8591 126.09 37.8811C127.329 36.9031 128.242 35.5991 128.894 34.1647C128.959 33.9691 129.089 33.9039 129.285 33.9039C129.676 33.9039 130.067 34.2951 129.872 34.6863C129.024 36.6423 127.785 38.2071 126.155 39.4459C124.525 40.6195 122.83 41.2063 120.939 41.2063C118.201 41.2063 116.832 39.6415 116.832 37.2943C116.701 33.6431 120.483 28.3619 124.525 28.5575ZM124.591 29.9267C123.091 29.9267 121.005 32.7303 120.222 35.4035C123.678 34.9471 125.634 32.5999 125.634 31.1003C125.634 30.3831 125.177 29.9267 124.591 29.9267Z" fill="#202020"/>
<path d="M128.829 34.0993L130.785 29.2094C130.85 29.079 130.915 29.0138 131.045 29.0138H133.719C133.914 29.0138 133.979 29.1442 133.914 29.3398L132.023 34.0993C131.437 35.5989 131.111 36.7725 131.111 37.6201C131.111 38.5329 131.437 38.9893 132.089 38.9893C133.262 38.9893 134.631 37.2289 135.87 34.0341L137.826 29.1442C137.891 29.0138 137.957 28.9486 138.087 28.9486H140.76C140.956 28.9486 141.021 29.079 140.956 29.2746L139.065 34.0341C138.478 35.5337 138.152 36.7073 138.152 37.5549C138.152 38.4677 138.478 38.9241 139.065 38.9241C139.586 38.9241 140.238 38.4677 141.021 37.5549C141.868 36.6421 142.52 35.5989 143.107 34.6209C143.955 32.9257 144.476 30.9045 144.346 29.6006V29.5354C144.346 29.405 144.346 29.3398 144.476 29.2746C144.802 28.8834 145.259 28.6226 145.715 28.6226C146.302 28.6226 146.628 29.0138 146.628 29.7962C146.628 30.9045 146.106 32.4041 145.128 34.2297C144.15 36.0553 142.912 37.6853 141.477 39.1197C140.108 40.4889 138.804 41.2061 137.631 41.2061C136.196 41.2061 135.283 40.1629 135.088 38.4677C133.719 40.1629 132.089 41.2061 130.654 41.2061C128.959 41.2061 127.981 39.8369 127.981 37.7505C128.046 36.6421 128.307 35.4685 128.829 34.0993Z" fill="#202020"/>
<path d="M97.2718 21.907H54.1748V22.9502H97.2718V21.907Z" fill="#202020"/>
<path d="M146.759 21.907H104.9V22.9502H146.759V21.907Z" fill="#202020"/>
<path d="M110.573 44.5967H68.7144V45.6399H110.573V44.5967Z" fill="#202020"/>
<path d="M63.8108 52.6814C64.0716 52.6814 64.3324 52.6814 64.528 52.7466C64.7236 52.8118 65.0496 52.877 65.3104 53.0074V53.7898C65.0496 53.6594 64.7888 53.529 64.528 53.4638C64.3324 53.4638 64.1368 53.4638 63.876 53.4638C63.55 53.4638 63.2892 53.529 63.0284 53.6594C62.7676 53.7898 62.572 53.9854 62.4416 54.181C62.3112 54.4418 62.246 54.7026 62.246 54.9634C62.246 55.2894 62.3112 55.5502 62.4416 55.7458C62.572 55.9414 62.7676 56.137 63.0284 56.2674C63.2892 56.3978 63.55 56.463 63.876 56.463C64.1368 56.463 64.3324 56.3978 64.5932 56.3326C64.7888 56.2674 65.1148 56.137 65.4408 55.9414V56.7238C65.18 56.8542 64.9192 56.9846 64.6584 57.0498C64.3976 57.115 64.1368 57.115 63.8108 57.115C63.3544 57.115 62.898 57.0498 62.572 56.8542C62.246 56.6586 61.92 56.3978 61.7244 56.0718C61.5288 55.7458 61.3984 55.3546 61.3984 54.8982C61.3984 54.4418 61.5288 54.0506 61.7244 53.6594C61.92 53.3334 62.246 53.0074 62.6372 52.8118C62.898 52.8118 63.3544 52.6814 63.8108 52.6814Z" fill="#202020"/>
<path d="M68.8963 52.6814C69.3527 52.6814 69.7439 52.7466 70.1351 52.9422C70.5263 53.1378 70.7871 53.3986 71.0479 53.7898C71.2435 54.1158 71.3739 54.5722 71.3739 54.9634C71.3739 55.3546 71.2435 55.7458 71.0479 56.137C70.8523 56.463 70.5263 56.789 70.2003 56.9846C69.8091 57.1802 69.4179 57.3106 68.9615 57.3106C68.5051 57.3106 68.1139 57.1802 67.7227 56.9846C67.3315 56.789 67.0707 56.5282 66.8099 56.137C66.6143 55.811 66.4839 55.4198 66.4839 54.9634C66.4839 54.5722 66.6143 54.181 66.8099 53.7898C67.0055 53.3986 67.3315 53.1378 67.6575 52.9422C68.0487 52.8118 68.4399 52.6814 68.8963 52.6814ZM67.3315 54.9634C67.3315 55.2894 67.3967 55.5502 67.5271 55.7458C67.6575 55.9414 67.8531 56.137 68.1139 56.2674C68.3747 56.3978 68.6355 56.463 68.8963 56.463C69.3527 56.463 69.7439 56.3326 70.0047 56.0066C70.3307 55.7458 70.4611 55.3546 70.4611 54.8982C70.4611 54.5722 70.3959 54.3114 70.2655 54.1158C70.1351 53.855 69.9395 53.7246 69.6787 53.5942C69.4179 53.4638 69.1571 53.3986 68.8963 53.3986C68.6355 53.3986 68.3095 53.4638 68.1139 53.5942C67.8531 53.7246 67.6575 53.9202 67.5271 54.1158C67.3967 54.4418 67.3315 54.7026 67.3315 54.9634Z" fill="#202020"/>
<path d="M73.4606 52.7466L74.895 54.507L76.3294 52.7466H77.1118V57.1802H76.2642V54.0506L74.9602 55.6154H74.8298L73.5258 54.0506V57.1802H72.6782V52.7466H73.4606Z" fill="#202020"/>
<path d="M80.3065 52.7466C80.6977 52.7466 81.0889 52.877 81.3497 53.1378C81.6105 53.3986 81.7409 53.6594 81.7409 54.0506C81.7409 54.4418 81.6105 54.7678 81.3497 54.9634C81.0889 55.159 80.7629 55.2894 80.3065 55.2894H79.4589V57.1802H78.6113V52.7466H80.3065ZM80.1109 54.6374C80.3717 54.6374 80.5021 54.5722 80.6325 54.507C80.7629 54.3766 80.8281 54.2462 80.8281 54.0506C80.8281 53.6594 80.5673 53.4638 80.0457 53.4638H79.4589V54.7026H80.1109V54.6374Z" fill="#202020"/>
<path d="M83.6967 52.7466V55.3546C83.6967 55.6154 83.7619 55.811 83.8271 56.0066C83.8923 56.137 84.0227 56.2674 84.2183 56.3978C84.4139 56.5282 84.6095 56.5282 84.8703 56.5282C85.1311 56.5282 85.3267 56.463 85.5223 56.3978C85.7179 56.3326 85.8483 56.137 85.9135 56.0066C85.9787 55.811 86.0439 55.6154 86.0439 55.2894V52.7466H86.8915V55.4198C86.8915 56.0066 86.6959 56.463 86.3699 56.789C86.0439 57.115 85.5223 57.2454 84.8703 57.2454C84.4791 57.2454 84.0879 57.1802 83.8271 57.0498C83.5011 56.9194 83.3055 56.7238 83.1099 56.3978C82.9795 56.137 82.8491 55.811 82.8491 55.4198V52.7466H83.6967Z" fill="#202020"/>
<path d="M92.0421 52.7466V53.3986H90.4773V57.1802H89.6297V53.3986H88.0649V52.7466H92.0421Z" fill="#202020"/>
<path d="M96.0846 52.7466V53.3986H94.0634V54.5722H96.0194V55.2242H94.0634V56.463H96.1498V57.115H93.2158V52.6814H96.0846V52.7466Z" fill="#202020"/>
<path d="M99.0187 52.7466C99.4099 52.7466 99.8011 52.877 100.062 53.0726C100.323 53.2682 100.453 53.5942 100.453 53.9854C100.453 54.2462 100.388 54.4418 100.257 54.6374C100.127 54.833 99.9315 54.9634 99.6707 55.0938C99.8011 55.159 99.9315 55.2894 100.062 55.4198C100.192 55.5502 100.323 55.7458 100.453 56.0718C100.714 56.5934 100.909 56.9846 101.04 57.1802H100.062C99.9967 57.115 99.9315 56.9194 99.8011 56.7238C99.5403 56.2674 99.3447 55.9414 99.2795 55.7458C99.1491 55.5502 99.0839 55.485 98.9535 55.4198C98.8231 55.3546 98.7579 55.2894 98.5623 55.2894H98.2363V57.1802H97.3887V52.7466H99.0187ZM98.8231 54.6374C99.0187 54.6374 99.2143 54.5722 99.3447 54.4418C99.4751 54.3114 99.5403 54.181 99.5403 53.9854C99.5403 53.7898 99.4751 53.6594 99.3447 53.529C99.2143 53.3986 99.0187 53.3986 98.8231 53.3986H98.3015V54.6374H98.8231Z" fill="#202020"/>
<path d="M106.712 52.6814C106.973 52.6814 107.234 52.6814 107.429 52.7466C107.625 52.8118 107.951 52.877 108.212 53.0074V53.7898C107.951 53.6594 107.69 53.529 107.429 53.4638C107.168 53.3986 106.973 53.3334 106.712 53.3334C106.386 53.3334 106.125 53.3986 105.864 53.529C105.604 53.6594 105.408 53.855 105.278 54.0506C105.147 54.3114 105.082 54.5722 105.082 54.833C105.082 55.159 105.147 55.4198 105.278 55.6154C105.408 55.811 105.604 56.0066 105.864 56.137C106.125 56.2674 106.386 56.3326 106.712 56.3326C106.973 56.3326 107.168 56.2674 107.429 56.2022C107.625 56.137 107.951 56.0066 108.277 55.811V56.5934C108.016 56.7238 107.755 56.8542 107.494 56.9194C107.234 56.9846 106.973 56.9846 106.647 56.9846C106.19 56.9846 105.734 56.9194 105.408 56.7238C105.082 56.5282 104.756 56.2674 104.56 55.9414C104.365 55.6154 104.234 55.2242 104.234 54.7678C104.234 54.3114 104.365 53.9202 104.56 53.529C104.756 53.203 105.082 52.877 105.473 52.6814C105.799 52.8118 106.256 52.6814 106.712 52.6814Z" fill="#202020"/>
<path d="M111.798 52.6814C112.254 52.6814 112.645 52.7466 113.036 52.9422C113.428 53.1378 113.688 53.3986 113.949 53.7898C114.145 54.1158 114.275 54.5722 114.275 54.9634C114.275 55.3546 114.145 55.7458 113.949 56.137C113.754 56.463 113.428 56.789 113.102 56.9846C112.71 57.1802 112.319 57.3106 111.863 57.3106C111.406 57.3106 111.015 57.1802 110.624 56.9846C110.233 56.789 109.972 56.5282 109.711 56.137C109.516 55.811 109.385 55.4198 109.385 54.9634C109.385 54.5722 109.516 54.181 109.711 53.7898C109.907 53.3986 110.233 53.1378 110.559 52.9422C110.95 52.8118 111.341 52.6814 111.798 52.6814ZM110.233 54.9634C110.233 55.2894 110.298 55.5502 110.428 55.7458C110.559 55.9414 110.754 56.137 111.015 56.2674C111.276 56.3978 111.537 56.463 111.798 56.463C112.254 56.463 112.645 56.3326 112.906 56.0066C113.232 55.7458 113.362 55.3546 113.362 54.8982C113.362 54.5722 113.297 54.3114 113.167 54.1158C113.036 53.855 112.841 53.7246 112.58 53.5942C112.319 53.4638 112.058 53.3986 111.798 53.3986C111.537 53.3986 111.211 53.4638 111.015 53.5942C110.754 53.7246 110.559 53.9202 110.428 54.1158C110.298 54.4418 110.233 54.7026 110.233 54.9634Z" fill="#202020"/>
<path d="M115.905 56.2673C116.036 56.2673 116.166 56.3325 116.231 56.3977C116.362 56.4629 116.362 56.5933 116.362 56.7237C116.362 56.8541 116.296 56.9845 116.231 57.0497C116.166 57.1149 116.036 57.1801 115.905 57.1801C115.775 57.1801 115.644 57.1149 115.579 57.0497C115.514 56.9845 115.449 56.8541 115.449 56.7237C115.449 56.5933 115.514 56.4629 115.579 56.3977C115.644 56.3325 115.775 56.2673 115.905 56.2673Z" fill="#202020"/>
</svg>
